<svg id="logo" width="102" height="146" viewBox="0 0 102 146" fill="none" xmlns="http://www.w3.org/2000/svg">
  <g clip-path="url(#clip0_8912_10861)">
    <path d="M47.4056 0.838379H54.5943V15.0361H47.4056V0.838379Z" fill="#B0D944" />
    <path d="M43.8113 19.5305V22.406H36.6226V26.0004H65.3774V22.406H58.1887V16.8347H51V19.5305H43.8113Z" fill="#B0D944" />
    <path d="M72.5662 27.7974H51V30.4931H29.4339V36.963H72.5662V27.7974Z" fill="#B0D944" />
    <path d="M79.7548 38.7593H51V41.455H22.2451V47.9249H79.7548V38.7593Z" fill="#B0D944" />
    <path d="M79.7548 49.7219H51V52.4177H22.2451V58.8875H79.7548V49.7219Z" fill="#B0D944" />
    <path d="M86.9436 60.6846H51V63.3803H15.0565V69.8502H86.9436V60.6846Z" fill="#B0D944" />
    <path d="M86.9436 71.6481H51V74.3438H15.0565V80.8137H86.9436V71.6481Z" fill="#B0D944" />
    <path d="M94.1323 82.61H51V85.3058H7.86774V91.7756H94.1323V82.61Z" fill="#B0D944" />
    <path d="M101.321 93.5726H51V96.2684H0.679016V102.738H101.321V93.5726Z" fill="#B0D944" />
    <path d="M101.321 104.536H51V107.232H0.679016V113.702H101.321V104.536Z" fill="#B0D944" />
    <path d="M101.321 115.499H51V118.195H0.679016V124.664H101.321V115.499Z" fill="#B0D944" />
    <path d="M86.9436 126.461H51V129.156H15.0565V135.626H86.9436V126.461Z" fill="#B0D944" />
    <path d="M72.5662 137.424H51V140.12H29.4339V144.613H72.5662V137.424Z" fill="#B0D944" />
  </g>
  <defs>
    <clipPath id="clip0_8912_10861">
      <rect width="100.642" height="145.571" fill="white" transform="translate(0.679016 0.214233)" />
    </clipPath>
  </defs>
</svg>
